<svg id="Capa_1" data-name="Capa 1" xmlns="http://www.w3.org/2000/svg" viewBox="0 0 500 500"><defs><style>.cls-1{fill:#0034ab;}</style></defs><path class="cls-1" d="M411.69,174.93H157.5v51.64H146c-.06-1.12-.16-2.29-.16-3.45q0-49.35,0-98.71c0-15.18,9.67-24.84,24.83-24.86h9.89c0-2.17-.05-4.17,0-6.17a17.34,17.34,0,0,1,34.67.09c.05,1.9,0,3.8,0,5.89H238.4c0-2-.05-3.94,0-5.93a17.34,17.34,0,0,1,34.67,0c.06,1.9,0,3.8,0,6.12h23.16c0-2,0-3.85,0-5.71a17.35,17.35,0,1,1,34.69-.1c0,1.79,0,3.58,0,5.58h23.2c-.52-7.14.21-13.86,6.11-18.78a17.11,17.11,0,0,1,11.65-4.13c10.61.23,15.68,7,17.17,23.14,3.39,0,6.84,0,10.28,0,14.22.06,24.15,9.89,24.15,24.09q0,123.48,0,247c0,13.84-9.89,24-23.49,24q-70.86.09-141.72,0c-.71,0-1.41-.06-2.33-.11V383.07h4.36q69.42,0,138.83,0c8.67,0,13.57-5.61,12.63-13.18-6,.54-11.87,1.53-17.77,1.55-40.62.13-81.23.07-121.84.07h-4.59V359.93H399c8.78,0,13.47-5.24,12.7-14.54-6.38,3.68-13.28,3-20.09,3H273.3V336.94h80.8v-4.22c0-10.12-.06-20.25,0-30.37.11-13.31,10.08-23.31,23.36-23.41,11.32-.09,22.63,0,34.21,0Zm-254.26-12H411.92c0-13.86.11-27.47-.06-41.08a10.48,10.48,0,0,0-8.69-10.23c-4.66-.64-9.48-.14-14.37-.14,0,2.12.06,4,0,6a17.34,17.34,0,0,1-34.67-.08c-.06-2,0-4,0-6.25H330.94c0,2.46.06,4.38,0,6.3a17.34,17.34,0,0,1-34.66,0c-.07-2,0-4,0-6h-23c-1.13,15.39-6.12,22.25-16.46,22.85a17.15,17.15,0,0,1-11.79-3.7c-6.33-4.9-7.14-11.85-6.64-19.16H215.46c-1.26,15.63-6.33,22.47-16.81,22.87a17.16,17.16,0,0,1-11.72-3.92c-6.12-4.91-6.85-11.76-6.36-19.13-4.62,0-8.83-.26-13,.06a11.09,11.09,0,0,0-10.09,10.6C157.3,135.45,157.43,149.06,157.43,162.93ZM365.78,326.57l36.14-36.06c-7.9,0-16.56-.12-25.22,0-5.5.11-10.56,4.4-10.81,9.8C365.49,309.42,365.78,318.53,365.78,326.57Zm8.78,10.21c8.65,0,16.93.05,25.22,0,7.36-.05,12.11-4.87,12.16-12.3s0-14.92,0-22.38a19.69,19.69,0,0,0-.24-2.35ZM203.67,105.33c0-3.73.08-7.47,0-11.2S201.17,88,197.89,88s-5.7,2.42-5.75,6.12q-.13,11.2,0,22.41c.05,3.69,2.47,6.13,5.75,6.13s5.65-2.43,5.76-6.12S203.67,109.07,203.67,105.33Zm57.86-.3c0-3.5.05-7,0-10.49-.08-4-2.33-6.5-5.72-6.54S250,90.47,250,94.42q-.1,10.86,0,21.7c0,4,2.32,6.5,5.71,6.54s5.74-2.49,5.82-6.43C261.59,112.5,261.53,108.76,261.53,105Zm46.29.26c0,3.74-.07,7.48,0,11.21s2.44,6.14,5.71,6.16,5.74-2.41,5.79-6.09q.15-11.2,0-22.41c0-3.71-2.44-6.14-5.71-6.16s-5.69,2.4-5.79,6.09S307.83,101.56,307.82,105.29Zm69.42-.28c0-3.5.05-7,0-10.49-.08-4-2.34-6.49-5.74-6.52s-5.76,2.48-5.8,6.44q-.09,10.85,0,21.7c0,4,2.34,6.5,5.73,6.52s5.73-2.5,5.8-6.45C377.3,112.48,377.24,108.74,377.24,105Z"/><path class="cls-1" d="M101.19,268.15c2.79,2.59,5.41,5,8.23,7.67-1.73,2.19-3.45,4.17-5,6.31-19.55,27.57-22.59,57-6.75,86.78s42.05,44.1,75.76,42.85c39.11-1.44,71.74-32.76,75.92-71.49a80.17,80.17,0,0,0-4.9-38.3,9.25,9.25,0,0,1,.9-9.16c3.41-5.36,6.52-10.91,10.19-17.13-6.66,1.29-12.54,2.3-18.35,3.61a7.74,7.74,0,0,1-8.09-2.45c-29.58-31.15-71.83-35.66-107.54-11.57-.29.2-.61.35-1.34.76l-6.74-9a75,75,0,0,1,23-12.73c36.64-12.36,69.24-5.39,97.53,21.05a5.58,5.58,0,0,0,5.74,1.61c8.46-1.86,17-3.43,25.47-5.16,2.74-.56,5.51-.23,6.57,2.34a8.7,8.7,0,0,1-.07,6.65c-4.62,8.44-9.79,16.58-14.54,25a7.26,7.26,0,0,0-.67,5.23c17.1,52.7-12.52,106.41-66.26,120C141,433.38,88.92,400.72,78.63,350.66c-6.1-29.72.74-56.33,20-79.76C99.38,270,100.24,269.16,101.19,268.15Z"/><path class="cls-1" d="M145.82,307.85c0-9.28,0-18.06,0-26.84,0-6.1,1.81-7.87,8-7.88,10.36,0,20.72,0,31.08,0,5.15,0,7.15,2.05,7.17,7.28,0,9,0,18,0,27.43h25.83c7.4,0,8.88,1.48,8.88,8.84,0,10,0,20,0,30,0,5.44-2,7.43-7.37,7.44-8.92,0-17.83,0-27.33,0v3.52c0,8,0,15.91,0,23.86,0,5.25-2,7.31-7.13,7.33q-16.08,0-32.16,0c-4.91,0-7-2.12-7-7.1,0-9,0-18.05,0-27.43-1.31-.06-2.47-.16-3.62-.16-8.19,0-16.38,0-24.58,0-4.27,0-6.46-2.21-6.49-6.48q-.09-16.63,0-33.26c0-4.41,2.25-6.49,6.82-6.52C127.09,307.82,136.22,307.85,145.82,307.85Zm-23,34.72c9.43,0,18.56,0,27.69,0,4.71,0,6.8,2.14,6.85,6.86s0,9.63,0,14.45V377h23.15c0-8.84,0-17.38,0-25.93,0-6.89,1.6-8.49,8.48-8.49h26V319.42c-9.35,0-18.48,0-27.61,0-4.72,0-6.81-2.14-6.86-6.85s0-9.15,0-13.73V285H157.39c0,8.84,0,17.39,0,25.93,0,6.88-1.62,8.5-8.49,8.5H122.84Z"/><path class="cls-1" d="M186.53,198.09h11.09v11.15H186.53Z"/><path class="cls-1" d="M244,198.19v11.08H232.79V198.19Z"/><path class="cls-1" d="M279,209.2V198.14h11.25V209.2Z"/><path class="cls-1" d="M336.46,209.36H325.4V198.1h11.06Z"/><path class="cls-1" d="M382.73,209.41h-11V198.15h11Z"/><path class="cls-1" d="M232.82,244.38H243.9v11.15H232.82Z"/><path class="cls-1" d="M290.3,244.45v11.14H279.17V244.45Z"/><path class="cls-1" d="M325.34,255.52V244.39h11.12v11.13Z"/><path class="cls-1" d="M371.68,244.27h11.06v11.25H371.68Z"/><path class="cls-1" d="M279.1,290.67h11.08v11.15H279.1Z"/><path class="cls-1" d="M325.36,290.64H336.5v11.21H325.36Z"/></svg>