<svg id="Capa_1" data-name="Capa 1" xmlns="http://www.w3.org/2000/svg" viewBox="0 0 500 500"><defs><style>.cls-1{fill:#0034ab;}</style></defs><path class="cls-1" d="M199.61,75.74c-.05,1.24-.14,2.48-.14,3.73q0,51.06,0,102.11v4.24l122,24.41c8.46-37.6,16.88-75,25.41-112.89,5.39,1,10.68,2,15.95,3.08,14.56,2.9,29.1,5.85,43.66,8.72,15,3,22.27,17.65,14.86,30.08-4.43,7.44-13.16,10.94-22.79,9.07-8.45-1.64-16.89-3.35-25.33-5a4,4,0,0,0-.75.17c-1.35,6-2.75,12.11-4.15,18.26-2,8.83-4.14,17.65-6,26.52a9.06,9.06,0,0,0,.63,5.39c4.94,10.19,10.18,20.24,15.11,30.44a9.42,9.42,0,0,1,.71,5.73c-8.86,39.57-17.87,79.11-26.76,118.68a8.43,8.43,0,0,0,.39,4.82c14.91,35.07-11.16,72.73-49.16,70.92-23.48-1.12-43.56-19.46-47-43.1-.3-2.07-1-2.82-3-3.19q-66.37-12.18-132.7-24.51c-9.91-1.83-16.07-7.08-16.38-15.83-.28-8.39,1.55-16.81,6.4-23.86,2-2.85,5.84-4.36,8.81-6.54,1-.71,2.4-1.5,2.62-2.47C127.26,281,132.4,257.36,137.71,233h-62V112.5l36.77-36.76ZM149.18,233.08c-5.42,25-10.76,49.6-16.13,74.37l10.5,2.13q63.48,12.71,127,25.34a6.48,6.48,0,0,0,4.62-1.07,50.39,50.39,0,0,1,18.16-8.93,3.71,3.71,0,0,0,3.15-3.33q9-40.63,18.24-81.24c1.41-6.26,2.82-12.54,4.3-19.14l-37.51-7.48c-3.63,12.63-7.12,24.79-10.68,37.19l-67.22-13.47c3.58-12.6,7-24.75,10.57-37.19l-14.81-2.95v35.77Zm-62-11.36H187.86V87.19H120.64v33.57H87.21ZM264,345.31c-.82-.22-1.66-.5-2.53-.67q-26.3-5.28-52.6-10.53-40.62-8.1-81.25-16.2c-5.15-1-8.34.95-9.72,5.93-.91,3.27-1.77,6.56-2.51,9.87-1,4.3,1,7.23,5.37,8.24,1.11.25,2.22.44,3.34.65L229,362l26.87,5c1.09-3.93,1.85-7.61,3.16-11.07S262.25,349,264,345.31Zm81.46,28a39.27,39.27,0,1,0-39,39.65A39.18,39.18,0,0,0,345.47,373.32Zm3.69-234.88Q328.37,230.92,307.65,323l11.85,1.71,42-183.82Zm2.5-11,30.7,6.16c6.44,1.29,12.85,2.68,19.31,3.83,7.08,1.27,12.6-4.1,10.95-10.6-1.1-4.35-4.54-5.9-8.53-6.69-9.09-1.81-18.19-3.65-27.28-5.45-7.06-1.4-14.13-2.77-21.36-4.19C354.16,116.22,353,121.61,351.66,127.42Zm11.57,120.64-14-2.82c-3.11,13.61-6.17,27-9.29,40.62L354,288.65ZM351.5,299.7l-14.07-2.82c-2.39,10.34-4.7,20.25-6.9,30.18a3.14,3.14,0,0,0,.63,2.63c3.69,2.87,7.53,5.56,11.58,8.5C345.66,325.36,348.54,312.72,351.5,299.7ZM217.72,228.78l17,3.47c2.52-8.81,5-17.44,7.54-26.37l-17-3.4Zm45.16,9.1c2.56-9,5-17.54,7.51-26.38l-17-3.38c-2.55,8.86-5,17.39-7.56,26.3Zm103-.76c.55-3.3,2.27-6.81,1.33-9.33-2.43-6.48-6-12.52-9.55-19.52-2.08,9.16-4,17.46-5.89,26ZM109.36,96.58,96.65,109.19h12.71Z"/><path class="cls-1" d="M126.11,137.83v10.9H109.69v50.53h44.59v-22h11.15v33.08H98.38V137.83Z"/><path class="cls-1" d="M167,133.33l7.6,7.76-43,43c-4.5-4.51-9.37-9.4-14.23-14.26l8.16-7.39,5.53,6.88Z"/><path class="cls-1" d="M306.06,401.79c-15.38-.16-28.32-13.27-28-28.33a28.44,28.44,0,0,1,28.09-27.87c15.25,0,28.22,12.93,28.14,28.16S321.29,402,306.06,401.79Zm.17-11.33a16.79,16.79,0,1,0-16.8-16.83A16.65,16.65,0,0,0,306.23,390.46Z"/></svg>