<svg id="Capa_1" data-name="Capa 1" xmlns="http://www.w3.org/2000/svg" viewBox="0 0 500 500"><defs><style>.cls-1{fill:#0034ab;}</style></defs><path class="cls-1" d="M282.43,56.89c2.84,2.2,3.63,5.14,3.4,8.6-.19,2.73,0,5.48,0,8.66h4.81q38.67,0,77.33,0c19.47,0,31.73,12.24,31.82,31.77.05,12.2,0,24.39,0,36.58a15.62,15.62,0,0,1-.3,3.75c-.71,2.78-2.79,4.66-5.47,4-2-.47-3.78-2.37-5.14-4-.71-.88-.38-2.66-.39-4,0-12.19,0-24.39,0-36.58-.05-12.82-7.37-20.11-20.13-20.12q-19.6,0-39.23,0h-4V99.89h4.14q18.28,0,36.59,0c6.41,0,8,1.6,8,8v301c0,7.08-1.49,8.54-8.65,8.54H134.71c-7.09,0-8.56-1.48-8.57-8.62,0-9.3,0-18.61,0-27.91,0-4.25,2-6.65,5.43-6.73s5.81,2.49,5.85,6.81c.07,6.91,0,13.83,0,20.74v4.21H362.19V111.42H324.82c0,3.08,0,6.17,0,9.26,0,6-1.79,7.76-7.93,7.77q-19.23,0-38.47,0H183.73c-7.06,0-8.55-1.52-8.56-8.66v-8.39H137.46v4.78q0,115.22,0,230.43a19.08,19.08,0,0,1-.37,4.85,5.53,5.53,0,0,1-10.84-.81,29.58,29.58,0,0,1-.09-3.77q0-119.17,0-238.35c0-7.36,1.33-8.65,8.87-8.65h39.87V86c-.24-.15-.45-.38-.65-.39-15.33,0-30.67-.25-46,0-8.16.13-15.27,7.08-16.35,15.16a44.8,44.8,0,0,0-.31,6q0,151.8,0,303.59c0,14.46,7,21.41,21.55,21.41H367.35c14,0,21.08-7.1,21.08-21.13q0-116,0-231.94a29.68,29.68,0,0,1,.26-5.26c.52-2.84,2.45-4.32,5.33-4.35a5,5,0,0,1,5.43,4.23,18.84,18.84,0,0,1,.29,4.12q0,116.73,0,233.45c0,20-12.29,32.19-32.21,32.19H131.41c-15.29,0-27.12-9-30.36-23.11a40.19,40.19,0,0,1-.79-9q-.06-152.36,0-304.72c0-16.83,9.14-28.73,24.32-31.65a39.9,39.9,0,0,1,7.5-.47q38.48,0,76.95,0h5.18c0-3,.15-5.86,0-8.67-.23-3.46.55-6.4,3.39-8.59Zm-95.77,60H313.3V85.67H285.79c0,3.45,0,6.69,0,9.93-.1,5-1.94,7-6.8,7q-29,.1-58.05,0c-4.72,0-6.59-2-6.71-6.72-.09-3.36,0-6.72,0-10.21H186.66Zm38.85-48.46c0,6.58.12,13,0,19.33-.08,2.77.72,3.68,3.59,3.65,14-.14,28.1-.06,42.16-.07,1,0,1.93-.18,3-.28V68.42Z"/><path class="cls-1" d="M269.65,174.63c5.83,0,11.2,0,16.58,0,5.54,0,7.47,2,7.48,7.49q0,12.24,0,24.49c0,5.56-1.85,7.39-7.48,7.42-5.38,0-10.75,0-16.58,0,0,5.88,0,11.36,0,16.84,0,5.09-2,7-7.08,7q-12.83,0-25.63,0c-4.67,0-6.65-2-6.7-6.64-.07-5.52,0-11,0-17.24h-8.33c-3.14,0-6.28.08-9.42,0-4-.15-6.11-2.12-6.16-6.06q-.15-13.56,0-27.13c0-4,2.27-6.11,6.48-6.17,5.64-.09,11.28,0,17.43,0,0-5.64,0-11,0-16.35,0-5.7,1.7-7.39,7.43-7.42q12.24,0,24.5,0c5.82,0,7.48,1.78,7.5,7.75C269.66,163.75,269.65,168.89,269.65,174.63Zm-11.32,51.78c0-5.53,0-10.68,0-15.83,0-6,1.84-7.82,7.92-7.85,5.24,0,10.49,0,16.14,0V185.94h-12c-11.9,0-12.07-.17-12.07-11.91V162.45h-16.8c0,5.67.05,11.05,0,16.43-.06,5.12-2,7-7.13,7.05-5.49,0-11,0-16.56,0v16.79c5.5,0,10.76,0,16,0,5.82,0,7.65,1.89,7.68,7.73,0,5.25,0,10.5,0,15.94Z"/><path class="cls-1" d="M252,271.93H165.67c-1.26,0-2.86.43-3.7-.17-1.79-1.26-3.9-2.83-4.57-4.73-.93-2.59.69-4.93,3.41-5.86a13.7,13.7,0,0,1,4.44-.53q87.12,0,174.25,0a13.89,13.89,0,0,1,4.08.44,5.12,5.12,0,0,1,3.77,5.79,5.21,5.21,0,0,1-4.8,5,24.9,24.9,0,0,1-3.77.08Z"/><path class="cls-1" d="M252.26,339.79H165.51a21.28,21.28,0,0,1-3.39-.08c-3-.49-4.75-2.26-4.9-5.31s1.55-5,4.42-5.72a15.58,15.58,0,0,1,3.75-.2H339.27a14.16,14.16,0,0,1,3.75.22c2.85.78,4.53,2.68,4.34,5.78s-2,4.78-5,5.24a22.52,22.52,0,0,1-3.39.07Z"/><path class="cls-1" d="M244.71,305.88h-79.2a23.93,23.93,0,0,1-3.39-.07,5.57,5.57,0,0,1-.83-10.9,14.41,14.41,0,0,1,4.11-.33q79.4,0,158.78,0a14,14,0,0,1,4.1.35,5.57,5.57,0,0,1-1,10.88,27.37,27.37,0,0,1-3.39.06Z"/><path class="cls-1" d="M324.11,387.31c-5.51,0-11,0-16.54,0-4.12,0-6.52-2.18-6.51-5.64s2.43-5.62,6.55-5.64q16.54-.09,33.09,0c4.34,0,6.8,2.26,6.68,5.87-.11,3.43-2.48,5.38-6.72,5.41C335.14,387.34,329.63,387.31,324.11,387.31Z"/><path class="cls-1" d="M271.71,387.31c-3.75,0-7.51.07-11.27,0-3.6-.09-5.87-2.21-6-5.39-.11-3.34,2.19-5.8,5.92-5.86q11.64-.17,23.29,0c3.53.06,5.8,2.44,5.81,5.6,0,3.34-2.32,5.56-6.12,5.64S275.6,387.31,271.71,387.31Z"/></svg>