<svg id="Capa_1" data-name="Capa 1" xmlns="http://www.w3.org/2000/svg" viewBox="0 0 500 500"><defs><style>.cls-1{fill:#0034ab;}</style></defs><path class="cls-1" d="M435.55,385.53c-1.78,7.13-4.55,13.63-10.48,18.48-6.12,5-13.14,6.85-20.85,6.84q-63,0-126.09,0-91.14,0-182.26,0c-12.66,0-22.69-4.8-28.26-16.48a32.94,32.94,0,0,1-3-13.59q-.27-99.82-.1-199.65c0-18,12.61-30.07,31.3-30.1q52.9-.09,105.8,0h5.07v-4.24c0-13.65,0-27.3,0-40.95,0-11.07,5.67-16.67,16.78-16.68q26.09,0,52.18,0c12.37,0,17.72,5.3,17.73,17.56V151h4.85q52.73,0,105.45,0c8.5,0,16.2,1.94,22.64,7.87,5.09,4.69,7.51,10.75,9.25,17.2ZM206.66,163.59c-1.52-.07-2.48-.15-3.43-.15q-54,0-108,0c-11.94,0-18.45,6.72-18.45,18.78q0,98.55,0,197.09c0,12.59,6.6,19.17,19.24,19.17H404c12.63,0,19.22-6.58,19.22-19.2V182.57c0-12.66-6.47-19.12-19.2-19.13q-53.26,0-106.51,0c-1.28,0-2.56.12-4.14.2,0,6.94,0,13.56,0,20.18,0,11.1-5.64,16.73-16.72,16.75q-26.64,0-53.26,0c-11.08,0-16.68-5.65-16.7-16.77C206.65,177.18,206.66,170.56,206.66,163.59ZM219,144.93q0,19.19,0,38.38c0,4.46.39,4.88,4.62,4.88,17.62,0,35.24,0,52.86.06,3.22,0,4.52-1,4.51-4.38q-.13-38.93,0-77.84c0-3.49-1.25-4.61-4.68-4.58-17.5.12-35,0-52.5.06-4.48,0-4.82.35-4.82,5Q219,125.74,219,144.93Z"/><path class="cls-1" d="M163.42,374.75c-14.75-1.48-29.52-2.82-44.24-4.52a40.55,40.55,0,0,1-10.33-3.17c-4.91-2-7.68-5.66-7.35-11.26.2-3.49,0-7,.46-10.47,1.28-9.13,6.22-15.82,14.41-20,6.66-3.4,13.42-6.61,20.1-10,2.9-1.45,3-2.84.3-4.53-8.87-5.55-14.6-13.5-18.26-23.16a10.11,10.11,0,0,0-3.11-4.2A18.08,18.08,0,0,1,108,270c-.59-7.86-.43-15.52,6.12-21.4.7-.63.84-1.93,1.14-3,1.46-5,2.25-10.24,4.47-14.83a24.46,24.46,0,0,0,1.8-17.14,26.82,26.82,0,0,1-.52-3.21c-.54-4.88.66-7.6,4-9.16,3.16-1.48,6.14-.75,9.37,2.58,6.16,6.37,13.76,9.08,22.48,9.11,4.71,0,9.43-.17,14.12.16,8.25.59,16.23,2.48,23.4,6.81,8.7,5.28,13.85,13.13,16.48,22.9a19.27,19.27,0,0,0,4,7.75c6,6.69,6.62,27.18-3.63,33.09a8,8,0,0,0-2.84,3.95c-3.67,9.65-9.37,17.62-18.25,23.16-2.73,1.71-2.66,3.11.19,4.6,6.3,3.29,12.62,6.58,19,9.74,10.84,5.38,16.11,14.11,16,26.15,0,1.33,0,2.65,0,4,0,6.65-2.13,10.31-8.53,12.19-7.13,2.09-14.5,3.44-21.82,4.83a63,63,0,0,1-10.46.9c-7,.13-14,0-21,0ZM135.77,221c-1.07,3.6-2.17,7.35-3.28,11.09-1.85,6.21-4,12.36-5.44,18.66-.67,2.94-1,5.36-4.09,6.95-1.36.69-2.24,3-2.64,4.74-.44,1.95-.12,4.08-.1,6.14,0,2.87,1.42,5.1,4.09,5.75,3.14.76,4,2.79,4.72,5.51,2.39,8.78,6.52,16.95,15.06,20.67,6.42,2.81,7.82,6.71,6.95,12.69a4.33,4.33,0,0,0,0,.72c.11,5.54-2.36,9.38-7.38,11.76-6.21,2.94-12.2,6.38-18.53,9-8.44,3.53-11.77,9.68-11.31,18.54.12,2.28,1,3.34,2.94,3.77,4,.86,8,2,12,2.44a301.21,301.21,0,0,0,69.35,0,86.32,86.32,0,0,0,12.35-2.67,3.86,3.86,0,0,0,2.37-2.52c1.2-8.52-1.93-14.29-9.71-18.31-4.72-2.43-9.45-4.82-14.18-7.23-13.23-6.75-13.52-7.23-13.14-22,0-.24-.08-.54,0-.71.56-.93,1-2.34,1.78-2.66,11.68-4.52,17.64-13.63,20.84-25.17a6,6,0,0,1,3.06-3.31c2.76-1.19,5.06-2.67,5-5.89-.06-4.27,1.72-9.29-3.48-12-2.14-1.1-2.81-2.57-3.08-4.79-.94-7.88-3.45-15.11-10-20.16-6.06-4.66-13.25-6.22-20.69-6.63-6.74-.38-13.54-.08-20.21-.86C144.41,224,139.89,222.11,135.77,221Z"/><path class="cls-1" d="M324.37,268.72h63.39c.84,0,1.69,0,2.54,0,5.2,0,8.16,2.3,8.12,6.19s-3,6.16-8.23,6.16q-65.93,0-131.85,0a13.54,13.54,0,0,1-4.26-.59,5.53,5.53,0,0,1-4-5.85,5.72,5.72,0,0,1,4.73-5.66,19.39,19.39,0,0,1,4.32-.23Z"/><path class="cls-1" d="M324.67,305.79H389.5a22.81,22.81,0,0,1,3.61.14,6.07,6.07,0,0,1,0,12,18.54,18.54,0,0,1-3.25.15H258.41a13.83,13.83,0,0,1-3.59-.28c-3-.82-4.79-2.91-4.7-6.05a5.78,5.78,0,0,1,5-5.81,20.07,20.07,0,0,1,4-.19Z"/><path class="cls-1" d="M287.06,244c-9.42,0-18.84,0-28.26,0a16,16,0,0,1-4.64-.56,5.53,5.53,0,0,1-4-5.79,5.61,5.61,0,0,1,4.64-5.7,19.43,19.43,0,0,1,4.32-.3q28.08,0,56.16,0a20.92,20.92,0,0,1,4,.25,5.45,5.45,0,0,1,4.83,5.48c.18,3.17-1.31,5.36-4.41,6.17a17.18,17.18,0,0,1-4.3.46C305.9,244,296.48,244,287.06,244Z"/><path class="cls-1" d="M361.55,336.87c2.17,0,4.35-.15,6.51,0a5.74,5.74,0,0,1,5.5,5.65c0,3.09-1.35,5.78-4.53,6a92.68,92.68,0,0,1-15.45,0c-3.13-.28-4.61-2.93-4.41-6.08s2-5.21,5.15-5.54a69.71,69.71,0,0,1,7.23,0Z"/><path class="cls-1" d="M293.43,336.91c2.29,0,4.6-.17,6.87,0,3.25.29,5,2.51,5.23,5.53s-1.25,5.82-4.43,6.09a91.74,91.74,0,0,1-15.46,0c-3.14-.25-4.61-2.85-4.54-6a5.67,5.67,0,0,1,5.46-5.68c2.27-.2,4.58,0,6.87,0Z"/><path class="cls-1" d="M327.41,336.7a33.9,33.9,0,0,1,4.15.28,5.52,5.52,0,0,1,4.84,5.47c.21,3-1.12,5.5-4,6a31.72,31.72,0,0,1-9.63.14c-3.15-.41-4.61-2.88-4.58-6s2.24-5.31,5.46-5.72C324.82,336.74,326,336.76,327.41,336.7Z"/><path class="cls-1" d="M259.29,336.83c6.26-.08,9.16,1.87,9.15,6.07s-3,6.25-9.17,6.22a21.69,21.69,0,0,1-3.95-.28,6.1,6.1,0,0,1-5.24-6.32c.21-3.15,2.5-5.36,6-5.68C257.12,336.75,258.21,336.83,259.29,336.83Z"/><path class="cls-1" d="M386.21,342.48a5.84,5.84,0,0,1,6.54-5.63,6,6,0,0,1,5.64,6.24,6.1,6.1,0,0,1-6.61,5.68A5.92,5.92,0,0,1,386.21,342.48Z"/><path class="cls-1" d="M274.68,132.47A24.67,24.67,0,1,1,250,107.85,24.86,24.86,0,0,1,274.68,132.47Zm-24.75-12.26a12.27,12.27,0,0,0-12.24,12.18,12.32,12.32,0,1,0,24.64.2A12.27,12.27,0,0,0,249.93,120.21Z"/></svg>