<svg id="Capa_1" data-name="Capa 1" xmlns="http://www.w3.org/2000/svg" viewBox="0 0 500 500"><defs><style>.cls-1{fill:#0034ab;}</style></defs><path class="cls-1" d="M371.11,237.61a6.72,6.72,0,0,0,1.26.25c9.85-.75,11.08,2.46,10.92,11.13-.26,13.49-.07,27-.07,40.48,0,7.26-1.62,8.9-8.83,9h-3.28v30.89c0,10.79-.71,11.49-11.61,11.49l-23.47,0a8.88,8.88,0,0,0-1.27.26V345q0,27.22,0,54.47c0,19.4-12.83,32.17-32.29,32.18q-76.82,0-153.65,0c-19.2,0-32.11-12.84-32.11-32q0-149.62,0-299.24c0-19.18,12.86-32.06,32-32.06q77,0,154,0c19.16,0,32,12.86,32,32.06q0,27,0,54.09v4.66H339c8.2,0,16.4,0,24.6,0,5.42,0,7.54,2.13,7.55,7.57q0,33.3,0,66.59Zm-49-78.43c.25-.6.43-.82.43-1,0-20.18.19-40.36,0-60.54-.11-9.34-8-16.82-17.43-17.08-6.18-.17-12.37-.17-18.54.06a5.06,5.06,0,0,0-3.64,2.25c-3.07,5.64-5.91,11.4-8.66,17.21a7.41,7.41,0,0,1-7.42,4.68q-41.07-.09-82.14,0c-3.61,0-5.92-1.4-7.45-4.63-2.66-5.58-5.61-11-8.21-16.6-1-2.24-2.23-3.22-4.82-3.1-5,.24-10.1.07-15.14.07-12.91,0-20.27,7.28-20.27,20.07V399.46c0,12.62,7.37,20.06,19.9,20.07q77,0,154.06,0c12.38,0,19.85-7.43,19.86-19.73q0-27.62,0-55.24v-3.74H173.32c-12.91,0-20.27-7.28-20.27-20.07q0-67.72,0-135.46c0-16.11,10.07-26.1,26.28-26.11H322.15Zm36.67,139.25c-10.27,0-20.11.08-29.94,0-17.05-.17-30.43-13.49-30.45-30.2a30.26,30.26,0,0,1,30.33-30.31c8.83-.1,17.67,0,26.5,0h3.52V207.62h-4.66q-82.15,0-164.3,0c-8.23,0-16.65,1.3-24.66-3.3V319.94c0,7,1.75,8.77,8.65,8.77h185Zm0-127.14H179.2c-.88,0-1.77,0-2.65,0a12.22,12.22,0,0,0-11.3,10.44,11.91,11.91,0,0,0,8.14,13,20.9,20.9,0,0,0,6.32.74q87.43.06,174.86,0h4.24ZM371,250c-14,0-27.6,0-41.19,0-11,0-19.16,7.73-19.22,18-.07,10.48,8.13,18.27,19.32,18.3q18.9,0,37.78,0c1.09,0,2.17-.14,3.31-.21ZM181.13,80.65c1.88,3.76,3.43,7.19,5.31,10.42a4,4,0,0,0,3,1.45q36.31.12,72.64,0a3.67,3.67,0,0,0,2.81-1.2c1.9-3.36,3.52-6.88,5.41-10.68Z"/><path class="cls-1" d="M261.91,395.58v11.64H189.7V395.58Z"/><path class="cls-1" d="M177.55,219.89h11.63v36H177.55Z"/><path class="cls-1" d="M177.53,268.35H189.2V280H177.53Z"/><path class="cls-1" d="M334.73,268.21a6,6,0,1,1-6-6.07A6.1,6.1,0,0,1,334.73,268.21Z"/></svg>