<svg id="Capa_1" data-name="Capa 1" xmlns="http://www.w3.org/2000/svg" viewBox="0 0 500 500"><defs><style>.cls-1{fill:#0034ab;}</style></defs><path class="cls-1" d="M110.14,432.72c0-1.54-.13-3.08-.13-4.63V274.32c-8.2,0-16-.05-23.82,0a18.19,18.19,0,0,1-12.47-4.42C69.2,266,67.29,261,67.3,255.05q.06-51,0-102.06V87.68c0-13,7.31-20.4,20.26-20.4q64.75,0,129.52,0c13.48,0,20.69,7.17,20.75,20.64,0,1.06,0,2.12,0,3.68h4q34.08,0,68.15,0a7.18,7.18,0,0,1,5.65,2.19q36.11,36.32,72.31,72.53a6.76,6.76,0,0,1,2,4.2c.12,29.86.09,59.72.08,89.57,0,.57-.1,1.15-.16,1.91H377.92v-85H304.87V104h-67v4.16q0,73.34,0,146.67c0,9.82-5.49,17.1-14.42,19.06a28.06,28.06,0,0,1-6,.42q-45.32,0-90.63,0h-4.39v146H377.75V347.77h12.07c.07.92.18,1.72.18,2.53q0,40.5,0,81c0,.47-.08.94-.12,1.41Zm-30.66-262q0,41.75,0,83.48c0,5.89,2,7.92,7.94,7.93H217.6c6.09,0,8.09-2,8.09-8.16V87.76c0-6.33-2-8.32-8.32-8.32H87.9c-6.54,0-8.42,1.92-8.42,8.55Q79.47,129.36,79.48,170.75Zm237.74-6.22h50.39l-50.39-50.31Z"/><path class="cls-1" d="M432.7,277.12c-1.43,6-5.42,10.31-9.67,14.54q-49.12,49-98.16,98a24.47,24.47,0,0,1-6.64,4.61c-9.2,4.41-18.54,8.53-27.78,12.88-3,1.4-5.72,1.8-8.18-.7s-2-5.38-.58-8.24c.06-.11.12-.2.17-.31,4.8-10.34,8.37-21.52,14.75-30.76,6.26-9.05,15.35-16.14,23.25-24q40.2-40.25,80.45-80.45c7-7,16.36-8.2,24-3.31,4.72,3,6.85,7.66,8.36,12.75ZM299.18,389.58c8.88-3.73,16.5-7.41,22.9-14,22.37-23,45.26-45.52,67.95-68.22.89-.89,1.72-1.83,2-2.08l-8.47-9.13a25,25,0,0,1-1.95,2.48c-22.94,23-45.7,46.1-68.95,68.74C306.19,373.62,303,381.23,299.18,389.58ZM406.48,274l8.14,8.64c6.2-5.54,7.33-9.08,3.85-12.4S411,268.28,406.48,274Zm-5.37,21.62c1.55-1.48,2.88-2.73,3.69-3.49l-7.54-7.9L393,287.3Z"/><path class="cls-1" d="M268.3,347.79a61.06,61.06,0,0,1-61.44,60.61c-33.9-.3-60.73-28-60.33-62.36.38-32.84,28.19-59.83,61.36-59.54C241.31,286.79,268.67,314.55,268.3,347.79Zm-12.2-.39a48.72,48.72,0,1,0-48.78,48.83A48.86,48.86,0,0,0,256.1,347.4Z"/><path class="cls-1" d="M286.6,255.82V244.17h72.83v11.65Z"/><path class="cls-1" d="M286.82,195.25h72.57v11.86H286.82Z"/><path class="cls-1" d="M286.67,231.44V219.72h72.68v11.72Z"/><path class="cls-1" d="M359.44,268.53V280.3H286.77V268.53Z"/><path class="cls-1" d="M262.26,255.89V244.2h11.8v11.69Z"/><path class="cls-1" d="M262.43,195.3h11.69V207H262.43Z"/><path class="cls-1" d="M262.42,219.68h11.71v11.69H262.42Z"/><path class="cls-1" d="M274.11,280.32H262.46V268.58h11.65Z"/><path class="cls-1" d="M85.82,127.88v-42H219.2v42ZM207.1,115.77V98.06h-109v17.71Z"/><path class="cls-1" d="M177,237.63c0-1.9-.05-3.81,0-5.71.24-7.2,4.88-12,12.07-12.38,4-.19,8.08-.17,12.12,0,7.3.3,12.12,5.27,12.31,12.58.1,3.8.1,7.61,0,11.41-.19,7.34-4.95,12.21-12.32,12.54-3.8.17-7.61.13-11.41,0-8-.22-12.65-5-12.78-13.11C177,241.19,177,239.41,177,237.63Zm12.42-5.76v11.69H201.1V231.87Z"/><path class="cls-1" d="M134.35,237.83c0-1.9,0-3.81,0-5.71.12-7.17,4.75-12.18,11.88-12.57,4.15-.22,8.33-.2,12.48,0,7.3.33,12,5.37,12.1,12.73.05,3.92.08,7.85,0,11.77-.16,6.45-4.56,11.38-11,11.87a102.2,102.2,0,0,1-13.89.08c-7-.41-11.43-5.39-11.56-12.46C134.32,241.63,134.35,239.73,134.35,237.83Zm24.14-5.71H146.81v11.56h11.68Z"/><path class="cls-1" d="M128.15,238c0,1.9,0,3.8,0,5.7-.2,7.24-4.76,12-12,12.39a123.69,123.69,0,0,1-12.48,0c-7.16-.37-11.83-5.32-12-12.48-.09-3.8-.08-7.61,0-11.41.14-7.3,5-12.3,12.27-12.61,3.8-.16,7.61-.11,11.41,0,7.82.17,12.64,5,12.81,12.74C128.19,234.15,128.15,236.05,128.15,238Zm-23.92-6.07v11.79h11.48V231.89Z"/><path class="cls-1" d="M134.37,152.5c0-2.26-.09-4.52,0-6.77a11.85,11.85,0,0,1,11.19-11.34c4.63-.2,9.27-.19,13.9,0a11.79,11.79,0,0,1,11.27,11.26c.2,4.63.21,9.28,0,13.91a11.86,11.86,0,0,1-11.36,11.19c-4.51.18-9,.18-13.55,0a11.91,11.91,0,0,1-11.45-11.46C134.28,157,134.37,154.76,134.37,152.5Zm12.32,5.93h11.73V146.76H146.69Z"/><path class="cls-1" d="M134.38,195.27c0-2.37-.11-4.76,0-7.13a11.59,11.59,0,0,1,10.69-11,128.73,128.73,0,0,1,15,0,11.54,11.54,0,0,1,10.68,11c.22,4.62.21,9.27,0,13.9-.27,6.32-5.34,11.14-11.94,11.41-4.15.17-8.33.18-12.48,0-7.05-.3-11.84-5.38-12-12.48,0-1.9,0-3.8,0-5.71Zm24.05,5.86v-11.7H146.69v11.7Z"/><path class="cls-1" d="M195.18,134.32c2,0,4,0,6.06,0,6.72.17,11.79,4.8,12.2,11.51a118.44,118.44,0,0,1,0,13.19c-.34,6.87-5.43,11.62-12.33,11.75-4,.07-8.09.09-12.13,0a11.84,11.84,0,0,1-11.94-11.69c-.17-4.15-.14-8.32,0-12.48.2-7.38,5.09-12.14,12.45-12.28C191.37,134.29,193.28,134.32,195.18,134.32Zm6,24.18V146.69H189.41V158.5Z"/><path class="cls-1" d="M128.11,152.84c0,2.14.1,4.29,0,6.42a11.85,11.85,0,0,1-11.76,11.5q-6.42.19-12.84,0A12,12,0,0,1,91.71,159.2c-.22-4.38-.21-8.8,0-13.19a12,12,0,0,1,12-11.67c4-.09,8.08-.08,12.12,0,7.14.13,12,4.95,12.28,12.09.07,2.14,0,4.28,0,6.42Zm-12.33-6.07h-11.7v11.7h11.7Z"/><path class="cls-1" d="M195.2,177c2.14,0,4.28-.08,6.41,0,6.61.32,11.44,4.89,11.83,11.48a118.44,118.44,0,0,1,0,13.19,12.09,12.09,0,0,1-12,11.78c-4.16.17-8.33.17-12.48,0-6.95-.29-11.72-5.15-11.95-12.11-.14-4-.13-8.09,0-12.12.2-7.26,4.91-12,12.13-12.25,2-.07,4,0,6.06,0Zm-5.82,12.36v11.71h11.76V189.35Z"/><path class="cls-1" d="M109.93,177c2.14,0,4.28-.09,6.41,0,6.82.32,11.55,5,11.77,11.84.13,4.16.12,8.32,0,12.48a12,12,0,0,1-11.94,12.13c-4.15.18-8.32.18-12.47,0-7-.3-11.88-5.37-12-12.47-.09-3.68-.06-7.37,0-11.06.09-7.93,4.95-12.8,12.93-13,1.78,0,3.56,0,5.35,0ZM104,201.11h11.7V189.38H104Z"/><path class="cls-1" d="M213.47,377.88v5.94H201.54c-.1-2-.21-4.1-.32-6.34-9.06-2.61-16.88-6.55-18.29-17.77,3.85,0,7.39,0,10.92.05a2.87,2.87,0,0,1,1.7,1c5.11,5.41,15,6.6,21.21,2.51,3.5-2.3,3.74-5.3,0-7.07a30.09,30.09,0,0,0-10.17-2.6c-5.54-.49-10.8-1.56-15.48-4.68-11-7.31-10.86-20.49.34-27.46,2.87-1.79,6.22-2.84,9.73-4.39.09-1.65.2-3.75.32-6h11.85v6.4c6.28,1.64,11.94,3.87,15.44,9.24,1.49,2.28,2.22,5.07,3.66,8.49-4.64,0-8.26,0-11.87,0-.46,0-1-.53-1.34-.93-5.14-5.58-15.32-6.75-21.46-2.43-3.31,2.32-3.52,5.06.05,6.84a27.55,27.55,0,0,0,9.78,2.64c5.41.47,10.59,1.36,15.27,4.23,11.67,7.14,11.81,20.92.17,28.06C220.29,375.26,217.08,376.28,213.47,377.88Z"/></svg>