<svg id="Capa_1" data-name="Capa 1" xmlns="http://www.w3.org/2000/svg" viewBox="0 0 500 500"><defs><style>.cls-1{fill:#0034ab;}</style></defs><path class="cls-1" d="M352.3,181.81c5.53,0,10.7,0,15.88,0,11.09,0,18.21,7.11,18.21,18.21q0,101.23,0,202.45c0,10.86-7.18,18-18,18.06H121.2c-5.78,0-7.6-1.84-7.6-7.66q0-162.85,0-325.7c0-5.84,1.81-7.68,7.58-7.68q94.64,0,189.28,0A9.8,9.8,0,0,1,318,82.56q15.47,15.66,31.14,31.13a10.1,10.1,0,0,1,3.2,7.87C352.25,141.45,352.3,161.34,352.3,181.81ZM216.41,409.07c-.18-2.79-.49-5.26-.49-7.72q0-100.19,0-200.35c0-12.35,6.78-19.18,19-19.19H340.69V125c-8.76,0-17.27,0-25.78,0-6.35,0-8.07-1.69-8.08-7.91,0-7.7,0-15.39,0-23.09,0-1-.13-2-.19-2.9H125.2v318Zm10.85-108.25q0,50.1,0,100.18c0,6.53,1.64,8.18,8.16,8.18H366.86c6.51,0,8.17-1.66,8.17-8.18V201.35c0-6.52-1.65-8.17-8.17-8.17H235.43c-6.53,0-8.16,1.64-8.16,8.17Q227.26,251.09,227.26,300.82ZM332.82,113.41,319.2,99.15l-.74.76v13.5Z"/><path class="cls-1" d="M159,113.6V102.48h11.3v11.17c7.61-.53,14.64.32,19.51,6.86,3.42,4.61,3.66,9.85,3.22,15.54H182.89c-1.19-3.41-1.59-7.36-3.74-9.75-1.51-1.68-5.39-1.24-8.72-1.83v23.24c1.93,0,3.77,0,5.6,0a17,17,0,0,1,17.12,17.17q.09,5.51,0,11c-.15,10-7.39,17.13-17.36,17.28-1.64,0-3.28,0-5.3,0v11.19H159.2V193.12c-7.81.58-14.79-.42-19.62-7-3.39-4.62-3.53-9.85-3.13-15.45h10.18c1.18,3.52,1.49,7.42,3.57,9.7,1.56,1.71,5.4,1.35,8.6,2V159.06c-1.93,0-3.9.06-5.87,0a17,17,0,0,1-16.57-16.62c-.11-3.79-.06-7.58,0-11.37.11-10.14,7.36-17.34,17.54-17.45C155.42,113.59,157,113.6,159,113.6Zm11.67,45.49v22.7c2,0,3.75.1,5.49,0a5.55,5.55,0,0,0,5.59-5.67c.14-3.77.14-7.55,0-11.32a5.54,5.54,0,0,0-5.58-5.67C174.42,159,172.66,159.09,170.67,159.09ZM158.81,147.7V125c-1.89,0-3.54-.07-5.18,0-3.73.19-5.8,2.29-5.91,6.09-.09,3.53-.1,7.07,0,10.61.11,3.75,2.24,5.82,6,6C155.35,147.76,157,147.7,158.81,147.7Z"/><path class="cls-1" d="M204.38,216.17v10.92H136.5V216.17Z"/><path class="cls-1" d="M136.5,249.78V238.83h67.75v10.95Z"/><path class="cls-1" d="M204.36,261.63v10.95H136.61V261.63Z"/><path class="cls-1" d="M204.37,284.38v10.93H136.5V284.38Z"/><path class="cls-1" d="M204.23,318.16H136.61V307.1h67.62Z"/><path class="cls-1" d="M136.49,340.72V329.78h67.75v10.94Z"/><path class="cls-1" d="M204.35,352.53v10.91H136.57V352.53Z"/><path class="cls-1" d="M136.5,386.2V375.25h67.75V386.2Z"/><path class="cls-1" d="M295.3,159.32v11H238.91v-11Z"/><path class="cls-1" d="M238.8,124.73v-11h56.38v11Z"/><path class="cls-1" d="M249.83,136.58v10.95h-45V136.58Z"/><path class="cls-1" d="M295.31,136.59v10.93H261.65V136.59Z"/><path class="cls-1" d="M227.1,159.32v10.94H204.81V159.32Z"/><path class="cls-1" d="M227,124.9H204.82v-11H227Z"/><path class="cls-1" d="M301.4,261.39h-55c-5.86,0-7.71-1.82-7.71-7.57q0-21,0-41.91c0-5.38,1.92-7.35,7.2-7.35q55.23,0,110.46,0c5.37,0,7.35,1.93,7.36,7.2q0,21.13,0,42.28c0,5.49-1.93,7.35-7.56,7.36Zm-51.14-45.32v33.67H352.1V216.07Z"/><path class="cls-1" d="M329.57,358c0-10.89,0-21.79,0-32.68,0-5.11,2-7.08,7.09-7.1q10.13,0,20.25,0c4.64,0,6.74,2.1,6.74,6.74q0,33,0,66.07c0,4.64-2.1,6.71-6.73,6.75q-10.31.07-20.6,0c-4.64,0-6.72-2.1-6.74-6.74C329.54,380.05,329.57,369,329.57,358Zm22.48,28.26V329.89H341.12v56.39Z"/><path class="cls-1" d="M284.1,380.54c0-3.55-.07-7.1,0-10.65.1-4,2.22-6.12,6.22-6.16q10.85-.12,21.67,0c4,0,6.12,2.22,6.16,6.22q.12,10.83,0,21.67c-.05,4-2.23,6.12-6.22,6.16q-10.83.12-21.67,0c-4,0-6.07-2.23-6.16-6.22C284,387.89,284.1,384.21,284.1,380.54Zm11.56-5.31v11h10.92v-11Z"/><path class="cls-1" d="M272.73,380.87c0,3.43,0,6.86,0,10.3-.07,4.45-2.12,6.58-6.5,6.62q-10.47.1-21,0c-4.46,0-6.58-2.1-6.62-6.49q-.09-10.49,0-21c0-4.46,2.1-6.58,6.49-6.62q10.47-.09,20.95,0c4.45,0,6.55,2.11,6.63,6.49C272.78,373.76,272.73,377.31,272.73,380.87Zm-22.54-5.64v11h10.92v-11Z"/><path class="cls-1" d="M301.45,318.24c3.55,0,7.11-.08,10.65,0,3.8.1,6,2.2,6.06,6q.15,11,0,22c-.05,3.93-2.27,6-6.31,6.07-7.1.08-14.21.07-21.31,0-4.22,0-6.37-2.16-6.42-6.33q-.11-10.67,0-21.31c0-4.23,2.14-6.34,6.32-6.43C294.11,318.17,297.78,318.23,301.45,318.24Zm-5.74,11.52v10.93h10.94V329.76Z"/><path class="cls-1" d="M272.73,335.43c0,3.55.07,7.11,0,10.66-.1,4-2.21,6.17-6.18,6.22q-10.83.12-21.66,0c-4-.05-6.16-2.2-6.21-6.17q-.12-10.83,0-21.67c0-4,2.18-6.16,6.16-6.21q10.83-.12,21.66,0c4,0,6.13,2.19,6.23,6.16C272.8,328.09,272.73,331.76,272.73,335.43Zm-11.44-5.53H250.24v10.8h11.05Z"/><path class="cls-1" d="M346.69,272.76c3.43,0,6.86,0,10.3,0,4.46.06,6.61,2.1,6.66,6.45.06,7.11.07,14.21,0,21.32,0,4.15-2.22,6.26-6.45,6.3q-10.65.11-21.3,0c-4.16,0-6.27-2.22-6.3-6.45q-.1-10.65,0-21.31c0-4.17,2.21-6.23,6.44-6.31C339.58,272.71,343.13,272.76,346.69,272.76Zm-5.53,11.44v11H352v-11Z"/><path class="cls-1" d="M284.11,289.46c0-3.55-.08-7.11,0-10.66.11-3.78,2.22-6,6-6q11-.14,22,0c3.78,0,6,2.22,6,6q.15,11,0,22c-.05,3.78-2.23,6-6,6q-11,.15-22,0c-3.78-.05-5.91-2.23-6-6S284.11,293.25,284.11,289.46Zm22.6-5H295.65v10.86h11.06Z"/><path class="cls-1" d="M255.64,272.76c3.67,0,7.34-.07,11,0s6,2.21,6,6c.11,7.34.1,14.68,0,22-.05,3.79-2.22,6-6,6.05q-11,.15-22,0c-3.79-.05-6-2.22-6-6q-.15-11,0-22c.05-3.92,2.27-6,6.32-6.05C248.54,272.7,252.09,272.76,255.64,272.76Zm-5.47,22.53h11V284.4h-11Z"/><path class="cls-1" d="M318,238.49H295.64V227.55H318Z"/><path class="cls-1" d="M329.64,238.36v-10.8h11.05v10.8Z"/></svg>