<svg id="Capa_1" data-name="Capa 1" xmlns="http://www.w3.org/2000/svg" viewBox="0 0 500 500"><defs><style>.cls-1{fill:#0034ab;}</style></defs><path class="cls-1" d="M135.5,435.45c-8.33-3.37-10.76-9.78-10.7-18.4.26-34.9.15-69.8.09-104.7,0-10.56,1.39-20.73,7.37-29.74a50,50,0,0,1,24-19.58c19.57-7.57,39.1-15.2,58.7-22.68,2.7-1,3.67-2.28,3.9-5.35.5-6.79-1.09-11.81-6.64-16.53-7.61-6.49-11.57-15.63-13.42-25.48-.39-2.08-1-2.92-3.27-3.34-17.48-3.28-24.15-23.23-14.77-35.58.91-1.19,1.11-3.11,1.18-4.71.49-9.75,0-19.64,1.4-29.25,4.11-28.15,28.21-51.2,56.46-54.93,40.83-5.41,76,24.8,76.89,66q.1,5.25,0,10.5c-.1,5.53.49,10.55,3.26,15.83,6.94,13.19-1.75,29.38-16.61,32.14-2.17.41-3,1.14-3.41,3.29a48.62,48.62,0,0,1-16.38,28.63,5.94,5.94,0,0,0-2.41,5.23c.19,4,.05,8,.05,12,16.59,6.43,33,12.77,49.4,19.14,5.61,2.18,11.43,4,16.77,6.73,17.86,9.17,27.4,23.82,27.65,44.09.15,11.6,0,23.19,0,34.79,0,1.07.12,2.54-.49,3.14-1.52,1.48-3.46,3.57-5.16,3.51s-3.6-2.23-4.82-3.9c-.72-1-.36-2.81-.37-4.25-.1-12.19.22-24.41-.37-36.58-.7-14.59-8.5-25.16-21.48-31.09-12.59-5.74-25.75-10.2-39.06-15.39-.67,1.26-1.28,2.37-1.85,3.51L287.72,290c-4.66,9.34-8.75,10.63-17.86,5.52-2.79,3.22-4.67,6.31-3.8,11.21,5.37,30.16,10.37,60.39,15.5,90.59a10.49,10.49,0,0,1-3,9.28q-6.74,7.33-13.41,14.74c-.78.86-1.5,1.76-2.56,3h58.44V320.62c0-5.82,1.77-8.47,5.59-8.39,3.65.08,5.28,2.62,5.28,8.28V424.58H345.4c4.58,0,9.17,0,13.76,0,4.25,0,5-.77,5-5.12,0-15.22,0-30.44,0-45.65a29.31,29.31,0,0,1,.17-4,5.25,5.25,0,0,1,10.4-.22,22.73,22.73,0,0,1,.28,4c0,14.49-.25,29,.11,43.47.22,8.62-2.35,15-10.69,18.41h-150c-2.23-1.39-4.11-3-3.76-6s2.54-4.81,6.49-4.84c6.56-.05,13.12,0,20.46,0-5.85-6.45-11.09-12.26-16.36-18a10.57,10.57,0,0,1-2.93-9.29c5.08-30,10-59.95,15.36-89.86.91-5.07-.52-8.5-3.69-11.83-8.93,5.05-13.18,3.76-17.69-5.26l-1.94-3.88c-4.51-9-9-18.09-13.63-27.32-1.36.47-2.48.82-3.58,1.25l-30.33,11.78c-18.8,7.32-27.1,19.4-27.1,39.53q0,36.94,0,73.89,0,16.67,0,33.32c0,5.06.64,5.69,5.55,5.7q11.76,0,23.54,0c1,0,2.05-.15,3.19-.23v-4.69q0-49.44,0-98.88a27.12,27.12,0,0,1,.08-3.61c.38-2.85,2-4.67,4.93-4.89,3.15-.22,5,1.52,5.65,4.48a18.62,18.62,0,0,1,.2,4q0,49.8,0,99.6v4.29c4.21,0,7.84-.15,11.45,0,4.58.25,7,4.58,4.69,8.18a21.39,21.39,0,0,1-2.33,2.63Zm73.19-287.73c0,11.41-.05,22.26,0,33.11a65.08,65.08,0,0,0,.68,9.36c3.09,20.14,21.56,34.27,43.14,33.09,20-1.09,36.7-17.54,37.33-37.39.43-13.27.17-26.55.16-39.83a4.76,4.76,0,0,0-.85-3c-4.07-4.59-8.28-9.05-12.55-13.68C255.8,142.27,233.43,148.68,208.69,147.72Zm97.46-3.07c-.34-7.2-.13-14.36-1.09-21.36-5-36.85-45.91-58.86-79.33-42.69-25.08,12.14-35.4,35.05-32.46,64.87,1.94-.92,4.49-1.29,5.19-2.62,2.59-5,6.63-5.92,11.71-6.08a182.78,182.78,0,0,0,23.75-1.89c13-2.14,24.91-7.33,36.12-14.22,6.35-3.91,10.26-3.26,15.37,2.2,4.28,4.58,8.54,9.2,12.72,13.89,1,1.14,2.39,2.6,2.39,3.92C300.54,144.46,303,144.45,306.15,144.65ZM255.09,306.34H245c-.26,1-.48,1.69-.6,2.4-4.68,27.7-9.17,55.43-14.16,83.07-1,5.33-.08,9,3.76,12.71,5.57,5.43,10.58,11.43,16,17.37,6-6.65,11.66-13.13,17.62-19.25,2.57-2.64,3.09-5.13,2.46-8.66-3.45-19.34-6.64-38.73-9.93-58.1Zm-25.23-75.67c-.68,5.77-.59,10.72,3.77,15.23,5,5.18,9.2,11.16,13.77,16.78.79,1,1.66,1.9,2.67,3.05,5.62-6.93,10.57-13.83,16.36-19.93,4.43-4.67,4.19-9.71,3.67-15.56C256.63,235.67,243.3,235.35,229.86,230.67Zm28,42.78L277,287.06l16-32c-4.93-1.92-9.59-3.79-14.31-5.5a2.39,2.39,0,0,0-2.06.74C270.36,258,264.17,265.63,257.84,273.45Zm-50.91-18.38,16,32,19.16-13.62c-6.34-7.83-12.45-15.43-18.67-22.94a3,3,0,0,0-2.64-.7C216.25,251.39,211.81,253.19,206.93,255.07Zm94.26-99.85v23.49c6.32-1.14,10.29-5.74,10.33-11.73C311.55,161.16,307.42,156.34,301.19,155.22ZM260.41,288.64c-2.92-2.08-5.91-4.3-9-6.35a2.84,2.84,0,0,0-2.51-.26c-3.28,2.17-6.43,4.53-9.82,7,2.29,2.56,2.58,6.65,7.25,6.19C251.71,294.66,258.37,297.41,260.41,288.64ZM197.74,155.73c-6.47,1-10.74,6.17-10.26,12.32.45,5.84,4.92,10.43,10.26,10.47Z"/></svg>